# xmcd
#
# Track frame offsets:
#	150
#	15517
#	39575
#	55610
#	77604
#	98715
#	118312
#	152827
#	169975
#	197405
#	215037
#	237252
#
# Disc length: 3342 seconds
#
# Revision: 1
# Processed by: cddbd v1.5.2PL0 Copyright (c) Steve Scherf et al.
# Submitted via: audiograbber 1.83.01
#
DISCID=980d0c0c
DTITLE=Katz Romero - Midnight Sun
DYEAR=1998
DGENRE=Blues
TTITLE0=Blue Skies
TTITLE1=Midnight Sun
TTITLE2=What A Little Moonlight Can Do
TTITLE3=The Good Life
TTITLE4=C'est Si Bon
TTITLE5=Miss Celie's Blues
TTITLE6=Spring Can Really Hang You Up The Most
TTITLE7=The Old Country
TTITLE8=La Vie En Rose
TTITLE9=Your Mother's Son In Law
TTITLE10=I've Got A Crush On You
TTITLE11=You'd Be So Nice To Come Home To
EXTD=
EXTT0=
EXTT1=
EXTT2=
EXTT3=
EXTT4=
EXTT5=
EXTT6=
EXTT7=
EXTT8=
EXTT9=
EXTT10=
EXTT11=
PLAYORDER=
